<svg xmlns="http://www.w3.org/2000/svg" viewBox="0 0 519.89 79.34">
	<defs>
		<style>.cls-1{fill:#ea5145;}.cls-1,.cls-2,.cls-3{fill-rule:evenodd;}.cls-2{fill:#fff;}.cls-3{fill:#191716;}
		</style>
	</defs>
	<path class="cls-1" d="M39.64,0A39.67,39.67,0,1,1,0,39.64,39.68,39.68,0,0,1,39.64,0Z"/>
	<path class="cls-2"
	      d="M39.7,16.49a23,23,0,0,1,11.72,3,22.18,22.18,0,0,1,8.34,8.39A23.28,23.28,0,0,1,62.85,39.7V58.33a4.13,4.13,0,0,1-1.25,3,4.28,4.28,0,0,1-3,1.19,4.34,4.34,0,0,1-3.1-1.19,4.13,4.13,0,0,1-1.25-3v-3.1a20.58,20.58,0,0,1-7.14,5.6,21.13,21.13,0,0,1-9,2,20.53,20.53,0,0,1-11-3,21.49,21.49,0,0,1-7.74-8.34A25,25,0,0,1,16.49,39.7a23.23,23.23,0,0,1,3-11.79,22.15,22.15,0,0,1,8.33-8.39,23.62,23.62,0,0,1,11.85-3Zm0,38.8a14.46,14.46,0,0,0,7.62-2,14.63,14.63,0,0,0,5.35-5.6,16.79,16.79,0,0,0,1.91-8,17.22,17.22,0,0,0-1.91-8,14.67,14.67,0,0,0-5.35-5.59,15,15,0,0,0-15.24,0,14.7,14.7,0,0,0-5.36,5.59,16,16,0,0,0-2,8,15.57,15.57,0,0,0,2,8,14.65,14.65,0,0,0,5.36,5.6A14.43,14.43,0,0,0,39.7,55.29Z"/>
	<path class="cls-3"
	      d="M127,22.62a16.52,16.52,0,0,1,8.63,2.26,16.73,16.73,0,0,1,3.51,2.62A16.39,16.39,0,0,1,141.77,31a14.81,14.81,0,0,1,1.67,4.17,15.93,15.93,0,0,1,.59,4.46V52a4,4,0,0,1-.35,1.67,3.73,3.73,0,0,1-1,1.42h0a4.1,4.1,0,0,1-3.15,1.31,5.75,5.75,0,0,1-1.67-.29c-.06,0-.06-.06-.12-.06a3.89,3.89,0,0,1-1.3-.9,3.56,3.56,0,0,1-.9-1.19,13.85,13.85,0,0,1-1.66,1,15.77,15.77,0,0,1-3.52,1.25,16.7,16.7,0,0,1-15.65-4.46,16.81,16.81,0,0,1-2.56-3.51,15.16,15.16,0,0,1-1.66-4.11,18.3,18.3,0,0,1-.54-4.52A17.26,17.26,0,0,1,112.25,31a17.08,17.08,0,0,1,2.62-3.51,15,15,0,0,1,3.51-2.62A16.54,16.54,0,0,1,127,22.62Zm0,25.59a9,9,0,0,0,2.26-.24,9.21,9.21,0,0,0,2-.83,8.38,8.38,0,0,0,1.66-1.31,7.24,7.24,0,0,0,1.25-1.73,9.09,9.09,0,0,0,1.08-4.46,8.83,8.83,0,0,0-1.08-4.4,7.24,7.24,0,0,0-1.25-1.73v0a9.59,9.59,0,0,0-1.72-1.37,7.5,7.5,0,0,0-1.91-.77,7.06,7.06,0,0,0-2.26-.3,6.87,6.87,0,0,0-2.26.3,6.22,6.22,0,0,0-2,.83,7.31,7.31,0,0,0-1.73,1.31,7.46,7.46,0,0,0-1.25,1.72,8.5,8.5,0,0,0-.83,2,10.34,10.34,0,0,0-.24,2.38,10.52,10.52,0,0,0,.24,2.44,8.43,8.43,0,0,0,.83,2,7.34,7.34,0,0,0,3,3,7.14,7.14,0,0,0,2,.83,9,9,0,0,0,2.26.24Z"/>
	<path class="cls-3"
	      d="M175.1,23.27A4.67,4.67,0,0,1,177,24.82c.06.06.06.12.12.24a4,4,0,0,1,.53,2,5.77,5.77,0,0,1-.3,1.61c-.06,0-.06.06-.11.12h0L165.7,53.68l-.06.06h0A5,5,0,0,1,164,55.65a4,4,0,0,1-2.5.77,4.06,4.06,0,0,1-2.5-.83,4.87,4.87,0,0,1-1.54-1.9v-.06l-11.67-24.7a.22.22,0,0,1-.06-.18,3.38,3.38,0,0,1-.24-.72,4.53,4.53,0,0,1-.12-.89,4.07,4.07,0,0,1,.72-2.32c.06-.06.12-.18.18-.24a6.38,6.38,0,0,1,1.54-1.25c.3-.12.6-.24,1-.36a5.12,5.12,0,0,1,1-.11,4.41,4.41,0,0,1,2.14.59,3,3,0,0,1,1,.89,3.43,3.43,0,0,1,.66,1l7.91,17.2,7.8-17.09a4.45,4.45,0,0,1,.66-1.13,4.72,4.72,0,0,1,1-.83,5.51,5.51,0,0,1,1.07-.48,4.74,4.74,0,0,1,1.19-.17,6.12,6.12,0,0,1,1,.11,3.3,3.3,0,0,1,.83.36Z"/>
	<path class="cls-3"
	      d="M187.36,10.53a4.31,4.31,0,0,1,2,.42.22.22,0,0,1,.18.06A6.17,6.17,0,0,1,191,12a9.74,9.74,0,0,1,1.2,1.73h0a5.21,5.21,0,0,1,0,4.05h0a5.38,5.38,0,0,1-1.14,1.72h0a5.35,5.35,0,0,1-1.72,1.13.22.22,0,0,1-.18.06,4.84,4.84,0,0,1-1.85.36,4.73,4.73,0,0,1-2-.42,5.35,5.35,0,0,1-1.72-1.13,5.89,5.89,0,0,1-1.08-1.72,4.88,4.88,0,0,1-.41-2,6,6,0,0,1,.41-2c0-.06.06-.12.06-.18A5.21,5.21,0,0,1,183.67,12h0A5.49,5.49,0,0,1,185.4,11h0a4.47,4.47,0,0,1,2-.41Z"/>
	<path class="cls-3"
	      d="M182.9,27.32a3.79,3.79,0,0,1,.36-1.67,3.6,3.6,0,0,1,1-1.49h0a4.51,4.51,0,0,1,1.49-1,5.09,5.09,0,0,1,1.66-.3,4,4,0,0,1,1.67.36h0a3.63,3.63,0,0,1,1.49.95,4.44,4.44,0,0,1,1.25,3.16V52a4.4,4.4,0,0,1-1.25,3.15,3.56,3.56,0,0,1-1.49,1c0,.06-.06.06-.12.12a7.44,7.44,0,0,1-1.55.23,5.36,5.36,0,0,1-1.66-.29,3.68,3.68,0,0,1-1.49-1A4.36,4.36,0,0,1,182.9,52V27.32Z"/>
	<path class="cls-3"
	      d="M215,35.23a5.15,5.15,0,0,1,1.67.3,4.48,4.48,0,0,1,1.49.95,4.84,4.84,0,0,1,1.3,3.16,4.49,4.49,0,0,1-.35,1.73h0a3.82,3.82,0,0,1-1,1.42A4.3,4.3,0,0,1,215,44H202.6a5.48,5.48,0,0,1-1.67-.29h0a4.57,4.57,0,0,1-1.42-1l-.18-.17a7.51,7.51,0,0,1-.78-1.25,5.81,5.81,0,0,1-.29-1.73,4,4,0,0,1,.29-1.61.22.22,0,0,1,.06-.18,4.38,4.38,0,0,1,.84-1.3,5,5,0,0,1,1.48-1,5.47,5.47,0,0,1,1.67-.29H215Zm-15.65,7.38-.48-1.36A2.34,2.34,0,0,0,199.33,42.61Z"/>
	<path class="cls-3"
	      d="M257.12,26.55l.06.17V39.64a17.08,17.08,0,0,1-2.2,8.63,19.85,19.85,0,0,1-2.68,3.51,19,19,0,0,1-3.45,2.68,20.07,20.07,0,0,1-4.17,1.67h0a18.72,18.72,0,0,1-4.46.53,16.9,16.9,0,0,1-8.63-2.2,17.5,17.5,0,0,1-3.51-2.68,18.94,18.94,0,0,1-2.68-3.51,19.54,19.54,0,0,1-1.67-4.17,18.52,18.52,0,0,1-.54-4.46,18.24,18.24,0,0,1,.54-4.52A17.21,17.21,0,0,1,225.34,31,16.39,16.39,0,0,1,228,27.5a13.23,13.23,0,0,1,3.39-2.62,15.76,15.76,0,0,1,4-1.73,18.46,18.46,0,0,1,4.4-.53,15.79,15.79,0,0,1,3.81.41,18.62,18.62,0,0,1,3.57,1.25c.42.24.83.48,1.19.72V15a5.15,5.15,0,0,1,.3-1.67,4.46,4.46,0,0,1,1-1.49,3.63,3.63,0,0,1,1.49-.95,3.79,3.79,0,0,1,1.67-.36,3.94,3.94,0,0,1,1.66.36,3.76,3.76,0,0,1,1.49,1l.18.18a3.31,3.31,0,0,1,.71,1.25h0a3.93,3.93,0,0,1,.3,1.67V26.54Zm-16.9,21.66a8.58,8.58,0,0,0,2.2-.24,9.63,9.63,0,0,0,2-.83,9.5,9.5,0,0,0,1.67-1.31c.06-.06.06-.12.12-.12A9.16,9.16,0,0,0,247.36,44a8.8,8.8,0,0,0,1.07-4.4v-.89l-.06-.12v-.12c0-.12-.06-.24-.06-.36a7.87,7.87,0,0,0-.83-2.73,7.56,7.56,0,0,0-1.79-2.33,7.83,7.83,0,0,0-5.47-2,8.54,8.54,0,0,0-4.29,1.07,7.69,7.69,0,0,0-3,3,7.85,7.85,0,0,0-.78,2.08,9.62,9.62,0,0,0-.3,2.38,10.34,10.34,0,0,0,.3,2.38,8.35,8.35,0,0,0,.78,2,9.92,9.92,0,0,0,1.3,1.72,9.6,9.6,0,0,0,1.67,1.37,8.2,8.2,0,0,0,2,.83,8.79,8.79,0,0,0,2.27.24Z"/>
	<path class="cls-3"
	      d="M270.87,10.53a4.62,4.62,0,0,1,2,.42c.06,0,.12,0,.12.06a4.47,4.47,0,0,1,1.55,1,5.1,5.1,0,0,1,1.19,1.73h0a5.09,5.09,0,0,1,0,4.05h0a5.52,5.52,0,0,1-1.13,1.72h0a5.39,5.39,0,0,1-1.73,1.13.22.22,0,0,1-.18.06,4.79,4.79,0,0,1-1.84.36,4.67,4.67,0,0,1-2-.42,5.28,5.28,0,0,1-1.73-1.13A5.85,5.85,0,0,1,266,17.8a5.09,5.09,0,0,1,0-4.05c0-.06.06-.12.06-.18A5,5,0,0,1,267.18,12h0A4.76,4.76,0,0,1,268.9,11h0a4.3,4.3,0,0,1,2-.41Z"/>
	<path class="cls-3"
	      d="M266.4,27.32a3.79,3.79,0,0,1,.36-1.67,3.7,3.7,0,0,1,.95-1.49h0a4.62,4.62,0,0,1,1.49-1,5.15,5.15,0,0,1,1.67-.3,4,4,0,0,1,1.67.36h0a3.6,3.6,0,0,1,1.48.95,4.4,4.4,0,0,1,1.25,3.16V52A4.36,4.36,0,0,1,274,55.11a3.52,3.52,0,0,1-1.48,1,.19.19,0,0,1-.12.06,5,5,0,0,1-1.55.29,5.14,5.14,0,0,1-1.67-.29,3.75,3.75,0,0,1-1.49-1,4.35,4.35,0,0,1-1.3-3.15V27.32Z"/>
	<path class="cls-3"
	      d="M296.82,22.62a19.09,19.09,0,0,1,3.69.35,12.62,12.62,0,0,1,3.33,1,14.58,14.58,0,0,1,2.8,1.72A14.1,14.1,0,0,1,308.9,28c.06.06.12.12.12.18h0a4.05,4.05,0,0,1,.54,1.13.19.19,0,0,1,.06.12,4.81,4.81,0,0,1,.17,1.19,3.8,3.8,0,0,1-.53,2A3.62,3.62,0,0,1,308,34h0a3.19,3.19,0,0,1-1.19.54l-.12.06h-.06a5.27,5.27,0,0,1-1,.12A4.73,4.73,0,0,1,302,33.21c-.06-.06-.06-.12-.12-.18a6.51,6.51,0,0,0-2.09-1.49A8.33,8.33,0,0,0,296.7,31a6.91,6.91,0,0,0-2,.24,3.35,3.35,0,0,0-1.25.53,1.8,1.8,0,0,0-.6.54,1.12,1.12,0,0,0-.12.47,1.2,1.2,0,0,0,.12.54,1.94,1.94,0,0,0,.48.54,13.67,13.67,0,0,0,4.82,1.42h0a26.87,26.87,0,0,1,5.29,1.31,13.84,13.84,0,0,1,3.93,2.32A9,9,0,0,1,310.63,46a9,9,0,0,1-.54,3,8.19,8.19,0,0,1-1.43,2.68,10.92,10.92,0,0,1-2.2,2.2,14,14,0,0,1-2.8,1.55,18.59,18.59,0,0,1-6.72,1.19,18.16,18.16,0,0,1-3.63-.3,16.75,16.75,0,0,1-3.46-1,15.42,15.42,0,0,1-3.21-1.55,15,15,0,0,1-2.56-2.14,1.05,1.05,0,0,1-.24-.3,3.92,3.92,0,0,1-.95-2.56,4.75,4.75,0,0,1,.48-2,4.55,4.55,0,0,1,1.25-1.43l.06-.06h0A5.36,5.36,0,0,1,286,44.7h0a3.93,3.93,0,0,1,1.42-.24A4.21,4.21,0,0,1,290.75,46a5,5,0,0,0,1,.89h0c.42.24.89.48,1.37.71a12.7,12.7,0,0,0,1.78.48,19.48,19.48,0,0,0,2,.12,12.07,12.07,0,0,0,2.68-.24h.06a5.67,5.67,0,0,0,1.42-.59,2.28,2.28,0,0,0,.66-.66,1.27,1.27,0,0,0,.18-.71h0c0-.42-.24-.78-.78-1.19a10.36,10.36,0,0,0-1.78-.78l-.12-.06a27.38,27.38,0,0,0-3-.65h0a26.24,26.24,0,0,1-5-1.25,16.36,16.36,0,0,1-3.87-2.14,10.26,10.26,0,0,1-2.5-3.1A8.41,8.41,0,0,1,284,33a9,9,0,0,1,4-7.86,12.29,12.29,0,0,1,4.05-2,17.25,17.25,0,0,1,4.76-.59Z"/>
	<path class="cls-3"
	      d="M356.34,14.94a4.13,4.13,0,0,1,.35-1.67h0a3.62,3.62,0,0,1,1-1.49.76.76,0,0,1,.23-.17,3.62,3.62,0,0,1,1.19-.72h0a4,4,0,0,1,1.67-.36,4.21,4.21,0,0,1,3.1,1.25v.06a3.3,3.3,0,0,1,1,1.43,3.93,3.93,0,0,1,.3,1.67v30a6,6,0,0,0,.17,1.48,7,7,0,0,0,.36.9,1.73,1.73,0,0,0,.3.35h1.37A3.89,3.89,0,0,1,369,48,4.11,4.11,0,0,1,370.38,49a4.24,4.24,0,0,1,.78,1.43h0a4.45,4.45,0,0,1,.3,1.55A4.32,4.32,0,0,1,371,53.8a.45.45,0,0,1-.12.24,4.06,4.06,0,0,1-1,1.25l-.18.18a4.13,4.13,0,0,1-1.37.66v.06a8.1,8.1,0,0,1-1.67.23H366a8.6,8.6,0,0,1-3.93-.89A9.14,9.14,0,0,1,358.9,53a11.49,11.49,0,0,1-2-3.69,17.36,17.36,0,0,1-.59-4.34v-30Z"/>
	<path class="cls-3"
	      d="M389.85,22.62a16.69,16.69,0,0,1,8.63,2.26,15,15,0,0,1,3.45,2.62A19.85,19.85,0,0,1,404.61,31a16.82,16.82,0,0,1,1.66,4.17,18.46,18.46,0,0,1,.54,4.46V52a4,4,0,0,1-.3,1.67,4.54,4.54,0,0,1-.95,1.42h0a4.12,4.12,0,0,1-3.16,1.31,5.36,5.36,0,0,1-1.66-.29c-.06,0-.12-.06-.18-.06a3.7,3.7,0,0,1-1.25-.9,2.46,2.46,0,0,1-.89-1.19,14,14,0,0,1-1.67,1,18.15,18.15,0,0,1-3.51,1.25,16.48,16.48,0,0,1-3.81.42A15.74,15.74,0,0,1,381,54.4a16,16,0,0,1-3.39-2.62A18.66,18.66,0,0,1,375,48.27a17.21,17.21,0,0,1-1.61-4.11,18.3,18.3,0,0,1-.54-4.52A17.22,17.22,0,0,1,375,31a19.34,19.34,0,0,1,2.67-3.51,15.29,15.29,0,0,1,3.52-2.62,16.37,16.37,0,0,1,8.63-2.26Zm0,25.59a9.38,9.38,0,0,0,2.26-.24,7.62,7.62,0,0,0,1.9-.83,6,6,0,0,0,1.67-1.31A6.47,6.47,0,0,0,397,44.1a9.19,9.19,0,0,0,1.07-4.46,8.93,8.93,0,0,0-1.07-4.4,7.72,7.72,0,0,0-1.31-1.73v0A7.55,7.55,0,0,0,394,32.14a7,7,0,0,0-2-.77,6.55,6.55,0,0,0-2.2-.3,6.72,6.72,0,0,0-2.27.3,6.64,6.64,0,0,0-2,.83,7.21,7.21,0,0,0-1.67,1.31,7.77,7.77,0,0,0-1.25,1.72,6.85,6.85,0,0,0-.83,2,10.34,10.34,0,0,0-.3,2.38,10.45,10.45,0,0,0,.3,2.44,6.79,6.79,0,0,0,.83,2,7.64,7.64,0,0,0,2.92,3,8.6,8.6,0,0,0,2,.83,8.79,8.79,0,0,0,2.27.24Z"/>
	<path class="cls-3"
	      d="M439.43,23.21h0a4.59,4.59,0,0,1,1.9,1.37v-.06a3.89,3.89,0,0,1,.83,2.44,5.74,5.74,0,0,1-.12.95,5.3,5.3,0,0,1-.35,1h0l-17,37.43v.06a4.37,4.37,0,0,1-1.31,1.73,3.58,3.58,0,0,1-2.39.83,3.12,3.12,0,0,1-1-.12,4.49,4.49,0,0,1-.83-.23h0a4.18,4.18,0,0,1-1.9-1.43,3.68,3.68,0,0,1-.78-2.38,2.64,2.64,0,0,1,.12-1,4.59,4.59,0,0,1,.3-.95h0l4.76-10.53L410.38,29h0a3,3,0,0,1-.36-1,5.12,5.12,0,0,1-.11-1,3.62,3.62,0,0,1,.77-2.32,4.63,4.63,0,0,1,1.84-1.43,5.28,5.28,0,0,1,.9-.3c.35-.06.89-.11.95-.11a3.8,3.8,0,0,1,2.32.71,4.07,4.07,0,0,1,1.43,1.84l8,16.91,7.68-16.91a4.78,4.78,0,0,1,1.43-1.78,4.08,4.08,0,0,1,4.17-.36Z"/>
	<path class="cls-3"
	      d="M449.48,46.31A5.85,5.85,0,0,1,453.35,48a5.66,5.66,0,0,1,1.19,1.79,6.19,6.19,0,0,1,0,4.16,5.73,5.73,0,0,1-1.19,1.73,4.89,4.89,0,0,1-1.78,1.19,5.39,5.39,0,0,1-4.17,0,4.89,4.89,0,0,1-1.78-1.19,4.83,4.83,0,0,1-1.14-1.73h0a5.11,5.11,0,0,1-.41-2.08,5.2,5.2,0,0,1,.41-2.14,5,5,0,0,1,1.2-1.79,6.57,6.57,0,0,1,1.72-1.19,6.16,6.16,0,0,1,2.08-.41Z"/>
	<path class="cls-3"
	      d="M476.56,22.56a14.89,14.89,0,0,1,2.39.18,10.65,10.65,0,0,1,2.14.59c0,.06.06.06.12.06a5,5,0,0,1,1.72,1.37,3.84,3.84,0,0,1,.84,2.38,1.66,1.66,0,0,1-.06.54v.12h0a1.42,1.42,0,0,1-.12.47h0a3.94,3.94,0,0,1-.54,1.25,3.45,3.45,0,0,1-1.19,1.13h0a2.87,2.87,0,0,1-1.25.48l-.12.06a6.34,6.34,0,0,1-1.07.06h-.77c-.18,0-.54-.06-1.07-.12h-1.07a7.83,7.83,0,0,0-2.8.42,4.9,4.9,0,0,0-2.08,1.13,3.77,3.77,0,0,0-1.25,1.54,5.63,5.63,0,0,0-.42,2.09V52a4.38,4.38,0,1,1-8.75,0V27.26a4.45,4.45,0,0,1,1.19-3.16,4.31,4.31,0,0,1,1.55-1,4.81,4.81,0,0,1,1.66-.3,4.34,4.34,0,0,1,3.16,1.25,2.12,2.12,0,0,1,.47.6,9.45,9.45,0,0,1,1.14-.65,12.49,12.49,0,0,1,3-1.14,14.3,14.3,0,0,1,3.16-.35Z"/>
	<path class="cls-3"
	      d="M515.49,22.86a4.78,4.78,0,0,1,1.61.29.21.21,0,0,0,.17.06,6.1,6.1,0,0,1,1.31.9,4.75,4.75,0,0,1,1,1.42h0a5.81,5.81,0,0,1,.29,1.73V52a5.51,5.51,0,0,1-.29,1.73,4.73,4.73,0,0,1-1,1.43h0a4.46,4.46,0,0,1-4.88,1,.22.22,0,0,1-.18-.06,6.66,6.66,0,0,1-1.3-.89c-.12-.18-.3-.36-.42-.54-.54.3-1.07.59-1.61.83a17.72,17.72,0,0,1-3.09,1,19.61,19.61,0,0,1-3.28.3,16.2,16.2,0,0,1-7.79-1.84,14.29,14.29,0,0,1-3.22-2.38h0a14.85,14.85,0,0,1-2.44-3.16,18.83,18.83,0,0,1-1.49-3.93h0a22.33,22.33,0,0,1-.47-4.46V27.26a5.19,5.19,0,0,1,.3-1.67,4.52,4.52,0,0,1,1-1.43,3.78,3.78,0,0,1,1.43-.95c.11-.06.17-.06.29-.12a5.56,5.56,0,0,1,1.43-.23,5.43,5.43,0,0,1,1.67.29,6.18,6.18,0,0,1,1.49,1c.06.06.06.11.12.17a3.74,3.74,0,0,1,.83,1.25,5.19,5.19,0,0,1,.3,1.67V41a9.11,9.11,0,0,0,.53,3.27,5.08,5.08,0,0,0,1.31,2.09,6.73,6.73,0,0,0,2.2,1.37,9.26,9.26,0,0,0,3,.41,9.91,9.91,0,0,0,2-.18,7.75,7.75,0,0,0,1.67-.53l.12-.06a6.49,6.49,0,0,0,1.25-.84h0a5.45,5.45,0,0,0,1-1.07l.06-.06a5,5,0,0,0,.54-1.19,4.56,4.56,0,0,0,.18-1.31V27.26a5.19,5.19,0,0,1,.29-1.67,3.94,3.94,0,0,1,1-1.48,4.21,4.21,0,0,1,1.48-1,5.12,5.12,0,0,1,1.67-.29Zm-19.34,1.48.53,1.37A1.93,1.93,0,0,0,496.15,24.34Z"/>
	<path class="cls-3"
	      d="M333.54,22.56a19.1,19.1,0,0,1,4.52.59,17.39,17.39,0,0,1,4.11,1.67A12.52,12.52,0,0,1,344,26.07a12.32,12.32,0,0,1,1.66,1.43c.48.53,1,1.07,1.43,1.66A13,13,0,0,1,348.3,31a11.91,11.91,0,0,1,1,2,21.28,21.28,0,0,1,.66,2.09,14.92,14.92,0,0,1,.48,2.26c.05.71.11,1.49.11,2.26s-.06,1.55-.11,2.26-.24,1.49-.42,2.26a16.65,16.65,0,0,1-.72,2.08,14.24,14.24,0,0,1-.95,2,14.67,14.67,0,0,1-1.19,1.84,16.18,16.18,0,0,1-1.37,1.61,11.88,11.88,0,0,1-1.6,1.43,10,10,0,0,1-1.79,1.25c-.65.36-1.31.71-2,1a21.28,21.28,0,0,1-2.09.66,8.91,8.91,0,0,1-2.14.41,14.35,14.35,0,0,1-2.26.18c-.66,0-1.31-.06-1.91-.12a18.4,18.4,0,0,1-1.9-.3l-1.79-.53a15,15,0,0,1-1.72-.78,10.66,10.66,0,0,1-1.25-.65v10a3.87,3.87,0,0,1-.06.83,4.13,4.13,0,0,1-.66,1.61v.06a5.14,5.14,0,0,1-.53.65c-.06,0-.12.06-.18.12l-.06.06h0l-.06.12h-.06l-.54.36h0a1.91,1.91,0,0,1-.59.29,3.49,3.49,0,0,1-.83.24,4,4,0,0,1-.84.06,4.49,4.49,0,0,1-.89-.06,5.48,5.48,0,0,1-.77-.24h-.06a4.19,4.19,0,0,1-.78-.41,3.36,3.36,0,0,1-.65-.6h-.06l-.06-.06v-.06h0l-.06-.06h0a2,2,0,0,1-.42-.59,6.6,6.6,0,0,1-.35-.66v-.06h0a3.61,3.61,0,0,1-.24-.77h0c0-.3-.06-.54-.06-.83V52.67h0v-.12h0a1.63,1.63,0,0,1-.06-.53V39.64a13.92,13.92,0,0,1,.18-2.27,16.54,16.54,0,0,1,.41-2.26,21.08,21.08,0,0,1,.66-2.08,21.13,21.13,0,0,1,1-2A14,14,0,0,1,320,29.16c.48-.59.95-1.13,1.43-1.66a11.72,11.72,0,0,1,1.67-1.43,11.7,11.7,0,0,1,1.84-1.25,12.87,12.87,0,0,1,2-1,12.49,12.49,0,0,1,2-.71H329a15,15,0,0,1,2.26-.42,13.81,13.81,0,0,1,2.26-.17Zm0,25.65a9,9,0,0,0,2.26-.3,4.79,4.79,0,0,0,1-.3,4.46,4.46,0,0,0,1-.53,5.45,5.45,0,0,0,1-.6,5.65,5.65,0,0,0,.77-.65,9.2,9.2,0,0,0,.66-.83,7.7,7.7,0,0,0,.59-.9,8.89,8.89,0,0,0,.84-2.08,12.43,12.43,0,0,0,0-4.76,8.72,8.72,0,0,0-.84-2.08,7.7,7.7,0,0,0-.59-.9,4.82,4.82,0,0,0-.66-.83c-.29-.24-.53-.48-.83-.71a6.23,6.23,0,0,0-.89-.6,7.7,7.7,0,0,0-.95-.48l-1-.35a6.46,6.46,0,0,0-1.07-.18,7.87,7.87,0,0,0-1.19-.12,9.33,9.33,0,0,0-2.26.3h0l-1,.36a5.08,5.08,0,0,0-.89.47,5.84,5.84,0,0,0-.9.6c-.29.23-.53.47-.83.71h0l-.06.06c-.24.24-.42.54-.65.77l-.54.9a8.86,8.86,0,0,0-.83,2.08,10.34,10.34,0,0,0-.24,2.38v.66h0v.06h0v0h0v.24h0l.06.06h0v.18h0v.18a6,6,0,0,0,.36,1.49,4.81,4.81,0,0,0,.53,1.31,7.51,7.51,0,0,0,.78,1.25h0c.29.35.65.71,1,1.07a7.39,7.39,0,0,0,2.44,1.49,14.52,14.52,0,0,0,1.43.41,14.35,14.35,0,0,0,1.6.12Z"/>
</svg>