<svg xmlns="http://www.w3.org/2000/svg" viewBox="0 0 570.46 67.81">
	<defs>
		<style>
			.cls-1{fill:#3b3b3a;}.cls-1,.cls-2,.cls-3,.cls-4{fill-rule:evenodd;}.cls-2{fill:#005899;}.cls-3{fill:#f2db00;}.cls-4{fill:#d40074;}
		</style>
	</defs>
	<path class="cls-1"
	      d="M78,22.74a25.36,25.36,0,0,1,7.4,1,16,16,0,0,1,5.88,3.15,14.67,14.67,0,0,1,3.85,5.34,19.25,19.25,0,0,1,1.39,7.67,21.35,21.35,0,0,1-1.19,7.44A14.63,14.63,0,0,1,92,52.71a13.83,13.83,0,0,1-5.27,3.22A21.25,21.25,0,0,1,79.84,57a16,16,0,0,1-5.31-.86v11a17.43,17.43,0,0,1-2.13.44,19.54,19.54,0,0,1-3,.23,16,16,0,0,1-2.63-.2,4.4,4.4,0,0,1-2-.8,3.6,3.6,0,0,1-1.2-1.62,7.75,7.75,0,0,1-.4-2.69V30.64A5.09,5.09,0,0,1,64,27.72a7.89,7.89,0,0,1,2.09-2.06,17.62,17.62,0,0,1,5.11-2.12,27.07,27.07,0,0,1,6.83-.8Zm.14,25.35q6.82,0,6.83-8.16,0-4.24-1.69-6.3a5.93,5.93,0,0,0-4.88-2.06,7.76,7.76,0,0,0-2.25.3,9.44,9.44,0,0,0-1.73.69V47.17a10.71,10.71,0,0,0,1.73.66A7,7,0,0,0,78.18,48.09Z"/>
	<path class="cls-1"
	      d="M116.5,55.93a17.26,17.26,0,0,1-2.1.4,21.72,21.72,0,0,1-3,.19,15.94,15.94,0,0,1-2.62-.19,4.56,4.56,0,0,1-2-.8,3.86,3.86,0,0,1-1.23-1.63,7.17,7.17,0,0,1-.43-2.69V31.3a5.6,5.6,0,0,1,.57-2.62,6.09,6.09,0,0,1,1.62-2A12.17,12.17,0,0,1,110,25.16a28.67,28.67,0,0,1,3.36-1.23,27.43,27.43,0,0,1,3.71-.82,25.06,25.06,0,0,1,3.85-.3A9.13,9.13,0,0,1,126,24a4.45,4.45,0,0,1,1.85,4,6.32,6.32,0,0,1-.26,1.83,9.14,9.14,0,0,1-.66,1.62c-.93,0-1.88.05-2.86.13s-1.92.23-2.85.4-1.81.37-2.62.57a11.89,11.89,0,0,0-2.09.69Z"/>
	<path class="cls-1"
	      d="M135.37,14.78a5.81,5.81,0,0,1,1.69-4.25,6.67,6.67,0,0,1,9,0,5.81,5.81,0,0,1,1.69,4.25A5.81,5.81,0,0,1,146,19a6.67,6.67,0,0,1-9,0,5.81,5.81,0,0,1-1.69-4.24Zm11.81,41.15-2.16.36a17.3,17.3,0,0,1-2.88.23,15.86,15.86,0,0,1-2.62-.19,4.51,4.51,0,0,1-2-.8,3.86,3.86,0,0,1-1.23-1.63,7,7,0,0,1-.43-2.69v-27q.72-.14,2.16-.36a17.31,17.31,0,0,1,2.88-.24,15.78,15.78,0,0,1,2.62.2,4.39,4.39,0,0,1,2,.8,3.89,3.89,0,0,1,1.23,1.62,7,7,0,0,1,.43,2.69Z"/>
	<path class="cls-1"
	      d="M177.93,35.55a3.68,3.68,0,0,0-1.16-3,4.78,4.78,0,0,0-3.15-1,10.51,10.51,0,0,0-2.62.33,6.43,6.43,0,0,0-2.23,1v23a17,17,0,0,1-2.09.4,21.72,21.72,0,0,1-3,.19,15.94,15.94,0,0,1-2.62-.19,4.51,4.51,0,0,1-2-.8,3.86,3.86,0,0,1-1.23-1.63,7,7,0,0,1-.43-2.69V31.3a5.11,5.11,0,0,1,.76-2.92,8.2,8.2,0,0,1,2.09-2.06A19.05,19.05,0,0,1,166,23.74a26.89,26.89,0,0,1,7.6-1q7.5,0,11.55,3.29a11.09,11.09,0,0,1,4.05,9.12V55.93a17.41,17.41,0,0,1-2.09.4,22,22,0,0,1-3,.19,16,16,0,0,1-2.62-.19,4.56,4.56,0,0,1-2-.8,3.86,3.86,0,0,1-1.23-1.63,7.17,7.17,0,0,1-.43-2.69Z"/>
	<path class="cls-1"
	      d="M210,44.91A2.74,2.74,0,0,0,211,47.37a5.6,5.6,0,0,0,3.09.72,13.46,13.46,0,0,0,2.06-.16A12.38,12.38,0,0,0,218,47.5a7.69,7.69,0,0,1,1,1.62,4.93,4.93,0,0,1,.43,2.16,5.16,5.16,0,0,1-1.89,4.12Q215.72,57,210.94,57q-5.83,0-9-2.66t-3.15-8.62V17.3a19.32,19.32,0,0,1,2.09-.43,16.54,16.54,0,0,1,2.88-.24,8.54,8.54,0,0,1,4.55,1C209.4,18.35,210,19.8,210,22v4.25h8.69a10.41,10.41,0,0,1,.76,1.82,7.47,7.47,0,0,1,.37,2.43,4.6,4.6,0,0,1-1,3.35,3.73,3.73,0,0,1-2.75,1h-6Z"/>
	<path class="cls-1"
	      d="M245,57.06a23.21,23.21,0,0,1-7.26-1.1,16.33,16.33,0,0,1-5.85-3.29,15.28,15.28,0,0,1-3.91-5.5,19.62,19.62,0,0,1-1.43-7.77A18.16,18.16,0,0,1,228,31.87a14.79,14.79,0,0,1,3.75-5.18,15,15,0,0,1,5.31-3,19.85,19.85,0,0,1,6.11-1,18.36,18.36,0,0,1,6.4,1.06,15.44,15.44,0,0,1,5,2.92,13,13,0,0,1,3.25,4.45A13.71,13.71,0,0,1,259,36.81a4.51,4.51,0,0,1-1.26,3.45,6.26,6.26,0,0,1-3.52,1.53l-16.39,2.46a5.5,5.5,0,0,0,3,3.28,11.69,11.69,0,0,0,5.17,1.1,18.74,18.74,0,0,0,5.15-.7A16.68,16.68,0,0,0,255,46.3a5.81,5.81,0,0,1,1.79,1.86,4.84,4.84,0,0,1,.73,2.52,4.74,4.74,0,0,1-2.79,4.45A15,15,0,0,1,250,56.66a34.45,34.45,0,0,1-5,.4ZM243.16,31a6.63,6.63,0,0,0-2.76.53,5.74,5.74,0,0,0-1.89,1.36,5.87,5.87,0,0,0-1.1,1.86,8,8,0,0,0-.43,2.09L248.33,35a5,5,0,0,0-1.46-2.65A4.86,4.86,0,0,0,243.16,31Z"/>
	<path class="cls-1"
	      d="M278.82,55.93a17,17,0,0,1-2.09.4,21.87,21.87,0,0,1-3,.19,16,16,0,0,1-2.62-.19,4.61,4.61,0,0,1-2-.8A3.76,3.76,0,0,1,268,53.9a7,7,0,0,1-.43-2.69V31.3a5.6,5.6,0,0,1,.56-2.62,6.26,6.26,0,0,1,1.63-2,11.93,11.93,0,0,1,2.62-1.56,28.5,28.5,0,0,1,3.35-1.23,27.24,27.24,0,0,1,3.72-.82,24.87,24.87,0,0,1,3.85-.3,9.12,9.12,0,0,1,5,1.22,4.46,4.46,0,0,1,1.86,4,6.34,6.34,0,0,1-.27,1.83,8.44,8.44,0,0,1-.66,1.62c-.93,0-1.88.05-2.85.13s-1.93.23-2.86.4-1.8.37-2.62.57a11.89,11.89,0,0,0-2.09.69Z"/>
	<path class="cls-1"
	      d="M296.76,43.65a8.62,8.62,0,0,1-.86-1.93,7.74,7.74,0,0,1-.4-2.52,4.78,4.78,0,0,1,1.13-3.55,4,4,0,0,1,2.92-1.1h14.2a14,14,0,0,1,.83,1.93A7.33,7.33,0,0,1,315,39a4.78,4.78,0,0,1-1.12,3.55,4,4,0,0,1-2.92,1.1Z"/>
	<path class="cls-1"
	      d="M342,31.63a9.23,9.23,0,0,0-3.15.54,7.28,7.28,0,0,0-2.59,1.55,7.77,7.77,0,0,0-1.76,2.56,9,9,0,0,0-.66,3.58c0,2.75.78,4.81,2.36,6.18a8.42,8.42,0,0,0,5.74,2.05,11.48,11.48,0,0,0,3.45-.46,21,21,0,0,0,2.59-1,6.93,6.93,0,0,1,2,2,5,5,0,0,1,.66,2.62A4.66,4.66,0,0,1,348,55.5,14.45,14.45,0,0,1,340.85,57a22,22,0,0,1-7.56-1.23,17.18,17.18,0,0,1-5.81-3.45A15.37,15.37,0,0,1,323.73,47a17.55,17.55,0,0,1-1.33-6.91,19.1,19.1,0,0,1,1.43-7.66A14.85,14.85,0,0,1,327.71,27a16.44,16.44,0,0,1,5.68-3.19,21.47,21.47,0,0,1,6.8-1.06c3.19,0,5.64.58,7.37,1.73a5.18,5.18,0,0,1,2.59,4.44,4.84,4.84,0,0,1-.6,2.36,8.26,8.26,0,0,1-1.39,1.89,22.05,22.05,0,0,0-2.73-1A11.55,11.55,0,0,0,342,31.63Z"/>
	<path class="cls-1"
	      d="M391.78,39.86a20,20,0,0,1-1.26,7.34A14.78,14.78,0,0,1,387,52.61a15.17,15.17,0,0,1-5.47,3.32,21.25,21.25,0,0,1-7.11,1.13,20,20,0,0,1-7.1-1.2,15.67,15.67,0,0,1-5.47-3.42A15.12,15.12,0,0,1,358.27,47,19.13,19.13,0,0,1,357,39.86a19,19,0,0,1,1.27-7.1,15.3,15.3,0,0,1,3.55-5.41,15.67,15.67,0,0,1,5.47-3.42,20.26,20.26,0,0,1,7.1-1.19A19.61,19.61,0,0,1,381.5,24,16,16,0,0,1,387,27.42a15.21,15.21,0,0,1,3.55,5.41,19,19,0,0,1,1.26,7Zm-23.23,0a10.51,10.51,0,0,0,1.56,6.21,5.06,5.06,0,0,0,4.35,2.16A4.86,4.86,0,0,0,378.74,46a10.85,10.85,0,0,0,1.5-6.18,10.53,10.53,0,0,0-1.53-6.14,5.41,5.41,0,0,0-8.63,0A10.53,10.53,0,0,0,368.55,39.86Z"/>
	<path class="cls-1"
	      d="M413.91,22.74a25.45,25.45,0,0,1,7.4,1,15.87,15.87,0,0,1,5.87,3.15A14.67,14.67,0,0,1,431,32.26a19.24,19.24,0,0,1,1.4,7.67,21.11,21.11,0,0,1-1.2,7.44,14.61,14.61,0,0,1-3.38,5.34,13.8,13.8,0,0,1-5.28,3.22A21.25,21.25,0,0,1,415.7,57a16.07,16.07,0,0,1-5.31-.86v11a17.17,17.17,0,0,1-2.12.44,19.67,19.67,0,0,1-3,.23,15.87,15.87,0,0,1-2.62-.2,4.39,4.39,0,0,1-2-.8,3.68,3.68,0,0,1-1.2-1.62,7.77,7.77,0,0,1-.39-2.69V30.64a5.09,5.09,0,0,1,.76-2.92A8.2,8.2,0,0,1,402,25.66a17.74,17.74,0,0,1,5.11-2.12,27.21,27.21,0,0,1,6.84-.8ZM414,48.09q6.84,0,6.84-8.16,0-4.24-1.7-6.3a5.91,5.91,0,0,0-4.87-2.06,7.78,7.78,0,0,0-2.26.3,9.73,9.73,0,0,0-1.73.69V47.17a10.71,10.71,0,0,0,1.73.66A7.09,7.09,0,0,0,414,48.09Z"/>
	<path class="cls-1"
	      d="M440.15,14.78a5.81,5.81,0,0,1,1.69-4.25,6.67,6.67,0,0,1,9,0,5.81,5.81,0,0,1,1.69,4.25A5.81,5.81,0,0,1,450.8,19a6.67,6.67,0,0,1-9,0,5.81,5.81,0,0,1-1.69-4.24ZM452,55.93l-2.16.36a17.3,17.3,0,0,1-2.88.23,15.86,15.86,0,0,1-2.62-.19,4.51,4.51,0,0,1-2-.8,3.86,3.86,0,0,1-1.23-1.63,7,7,0,0,1-.43-2.69v-27l2.15-.36a17.52,17.52,0,0,1,2.89-.24,15.78,15.78,0,0,1,2.62.2,4.39,4.39,0,0,1,2,.8,3.89,3.89,0,0,1,1.23,1.62,7,7,0,0,1,.43,2.69Z"/>
	<path class="cls-1"
	      d="M473.55,55.93a17,17,0,0,1-2.09.4,21.72,21.72,0,0,1-2.95.19,15.94,15.94,0,0,1-2.62-.19,4.51,4.51,0,0,1-2-.8,3.86,3.86,0,0,1-1.23-1.63,7,7,0,0,1-.43-2.69V31.3a5.72,5.72,0,0,1,.56-2.62,6.26,6.26,0,0,1,1.63-2,12.17,12.17,0,0,1,2.62-1.56,29.17,29.17,0,0,1,3.35-1.23,27.91,27.91,0,0,1,3.72-.82,25,25,0,0,1,3.85-.3A9.1,9.1,0,0,1,483,24a4.46,4.46,0,0,1,1.86,4,6.32,6.32,0,0,1-.26,1.83A8.46,8.46,0,0,1,484,31.5c-.93,0-1.88.05-2.85.13s-1.92.23-2.85.4-1.81.37-2.63.57a12.48,12.48,0,0,0-2.09.69Z"/>
	<path class="cls-1"
	      d="M487.38,50.62A6.58,6.58,0,0,1,489.11,46a6.89,6.89,0,0,1,9.42,0,7.1,7.1,0,0,1,0,9.29,6.89,6.89,0,0,1-9.42,0A6.55,6.55,0,0,1,487.38,50.62Z"/>
	<path class="cls-1"
	      d="M519.59,55.93a17,17,0,0,1-2.09.4,21.72,21.72,0,0,1-3,.19,15.94,15.94,0,0,1-2.62-.19,4.51,4.51,0,0,1-2-.8,3.86,3.86,0,0,1-1.23-1.63,7,7,0,0,1-.43-2.69V31.3a5.72,5.72,0,0,1,.56-2.62,6.26,6.26,0,0,1,1.63-2,12.17,12.17,0,0,1,2.62-1.56,29.17,29.17,0,0,1,3.35-1.23,27.91,27.91,0,0,1,3.72-.82,25,25,0,0,1,3.85-.3,9.1,9.1,0,0,1,5,1.22,4.46,4.46,0,0,1,1.86,4,6.69,6.69,0,0,1-.26,1.83A8.46,8.46,0,0,1,530,31.5c-.93,0-1.88.05-2.85.13s-1.92.23-2.85.4-1.81.37-2.63.57a12.48,12.48,0,0,0-2.09.69Z"/>
	<path class="cls-1"
	      d="M538.73,24.2a15.27,15.27,0,0,1,2.09-.4,21.81,21.81,0,0,1,2.95-.2,16,16,0,0,1,2.63.2,4.4,4.4,0,0,1,2,.8,3.81,3.81,0,0,1,1.23,1.62,7,7,0,0,1,.43,2.69V43.18a5,5,0,0,0,1.33,3.89,5.71,5.71,0,0,0,3.85,1.16,9.44,9.44,0,0,0,2.49-.27,7.71,7.71,0,0,0,1.49-.53V24.2a15.6,15.6,0,0,1,2.09-.4,22,22,0,0,1,3-.2,15.87,15.87,0,0,1,2.62.2,4.44,4.44,0,0,1,2,.8A3.89,3.89,0,0,1,570,26.22a7.24,7.24,0,0,1,.43,2.69V49.09a5.43,5.43,0,0,1-2.79,5,18.45,18.45,0,0,1-5.54,2.22,30.29,30.29,0,0,1-7,.77,25.89,25.89,0,0,1-6.6-.8,14.7,14.7,0,0,1-5.21-2.46,10.85,10.85,0,0,1-3.38-4.28,15.16,15.16,0,0,1-1.2-6.34Z"/>
	<path class="cls-2"
	      d="M.58,29.22A9.27,9.27,0,1,0,18,35.66c1.77-4.8-3.25-17.93-3.25-17.93S2.36,24.42.58,29.22Zm2.84.07c1.31,8.87,8.9,9.57,8.9,9.57C1,40.69,3.42,29.29,3.42,29.29Z"/>
	<path class="cls-3"
	      d="M29.32,28a7.54,7.54,0,0,0,14.59,3.81c1.05-4-4.08-14.25-4.08-14.25S30.37,24,29.32,28Zm2.3-.18c1.78,7.08,8,7,8,7C30.59,37.26,31.62,27.83,31.62,27.83Z"/>
	<path class="cls-4"
	      d="M21.26,8.31A7.14,7.14,0,1,0,34.4,13.92C35.94,10.29,32.57,0,32.57,0S22.81,4.68,21.26,8.31Zm2.18.16c.68,6.87,6.48,7.71,6.48,7.71C21.15,17.15,23.44,8.47,23.44,8.47Z"/>
</svg>